%TF.GenerationSoftware,KiCad,Pcbnew,10.0.1-rc1*%
%TF.CreationDate,2026-06-20T21:57:40+05:30*%
%TF.ProjectId,AC TO DC,41432054-4f20-4444-932e-6b696361645f,rev?*%
%TF.SameCoordinates,Original*%
%TF.FileFunction,Legend,Top*%
%TF.FilePolarity,Positive*%
%FSLAX46Y46*%
G04 Gerber Fmt 4.6, Leading zero omitted, Abs format (unit mm)*
G04 Created by KiCad (PCBNEW 10.0.1-rc1) date 2026-06-20 21:57:40*
%MOMM*%
%LPD*%
G01*
G04 APERTURE LIST*
%ADD10C,0.150000*%
%ADD11C,0.120000*%
G04 APERTURE END LIST*
D10*
X132548333Y-63129819D02*
X132215000Y-62653628D01*
X131976905Y-63129819D02*
X131976905Y-62129819D01*
X131976905Y-62129819D02*
X132357857Y-62129819D01*
X132357857Y-62129819D02*
X132453095Y-62177438D01*
X132453095Y-62177438D02*
X132500714Y-62225057D01*
X132500714Y-62225057D02*
X132548333Y-62320295D01*
X132548333Y-62320295D02*
X132548333Y-62463152D01*
X132548333Y-62463152D02*
X132500714Y-62558390D01*
X132500714Y-62558390D02*
X132453095Y-62606009D01*
X132453095Y-62606009D02*
X132357857Y-62653628D01*
X132357857Y-62653628D02*
X131976905Y-62653628D01*
X132929286Y-62225057D02*
X132976905Y-62177438D01*
X132976905Y-62177438D02*
X133072143Y-62129819D01*
X133072143Y-62129819D02*
X133310238Y-62129819D01*
X133310238Y-62129819D02*
X133405476Y-62177438D01*
X133405476Y-62177438D02*
X133453095Y-62225057D01*
X133453095Y-62225057D02*
X133500714Y-62320295D01*
X133500714Y-62320295D02*
X133500714Y-62415533D01*
X133500714Y-62415533D02*
X133453095Y-62558390D01*
X133453095Y-62558390D02*
X132881667Y-63129819D01*
X132881667Y-63129819D02*
X133500714Y-63129819D01*
X125739819Y-43346666D02*
X125263628Y-43679999D01*
X125739819Y-43918094D02*
X124739819Y-43918094D01*
X124739819Y-43918094D02*
X124739819Y-43537142D01*
X124739819Y-43537142D02*
X124787438Y-43441904D01*
X124787438Y-43441904D02*
X124835057Y-43394285D01*
X124835057Y-43394285D02*
X124930295Y-43346666D01*
X124930295Y-43346666D02*
X125073152Y-43346666D01*
X125073152Y-43346666D02*
X125168390Y-43394285D01*
X125168390Y-43394285D02*
X125216009Y-43441904D01*
X125216009Y-43441904D02*
X125263628Y-43537142D01*
X125263628Y-43537142D02*
X125263628Y-43918094D01*
X125739819Y-42394285D02*
X125739819Y-42965713D01*
X125739819Y-42679999D02*
X124739819Y-42679999D01*
X124739819Y-42679999D02*
X124882676Y-42775237D01*
X124882676Y-42775237D02*
X124977914Y-42870475D01*
X124977914Y-42870475D02*
X125025533Y-42965713D01*
X80462319Y-66143333D02*
X81176604Y-66143333D01*
X81176604Y-66143333D02*
X81319461Y-66190952D01*
X81319461Y-66190952D02*
X81414700Y-66286190D01*
X81414700Y-66286190D02*
X81462319Y-66429047D01*
X81462319Y-66429047D02*
X81462319Y-66524285D01*
X80557557Y-65714761D02*
X80509938Y-65667142D01*
X80509938Y-65667142D02*
X80462319Y-65571904D01*
X80462319Y-65571904D02*
X80462319Y-65333809D01*
X80462319Y-65333809D02*
X80509938Y-65238571D01*
X80509938Y-65238571D02*
X80557557Y-65190952D01*
X80557557Y-65190952D02*
X80652795Y-65143333D01*
X80652795Y-65143333D02*
X80748033Y-65143333D01*
X80748033Y-65143333D02*
X80890890Y-65190952D01*
X80890890Y-65190952D02*
X81462319Y-65762380D01*
X81462319Y-65762380D02*
X81462319Y-65143333D01*
X80804819Y-45108333D02*
X81519104Y-45108333D01*
X81519104Y-45108333D02*
X81661961Y-45155952D01*
X81661961Y-45155952D02*
X81757200Y-45251190D01*
X81757200Y-45251190D02*
X81804819Y-45394047D01*
X81804819Y-45394047D02*
X81804819Y-45489285D01*
X81804819Y-44108333D02*
X81804819Y-44679761D01*
X81804819Y-44394047D02*
X80804819Y-44394047D01*
X80804819Y-44394047D02*
X80947676Y-44489285D01*
X80947676Y-44489285D02*
X81042914Y-44584523D01*
X81042914Y-44584523D02*
X81090533Y-44679761D01*
X145311905Y-66074819D02*
X145311905Y-65074819D01*
X145311905Y-65074819D02*
X145550000Y-65074819D01*
X145550000Y-65074819D02*
X145692857Y-65122438D01*
X145692857Y-65122438D02*
X145788095Y-65217676D01*
X145788095Y-65217676D02*
X145835714Y-65312914D01*
X145835714Y-65312914D02*
X145883333Y-65503390D01*
X145883333Y-65503390D02*
X145883333Y-65646247D01*
X145883333Y-65646247D02*
X145835714Y-65836723D01*
X145835714Y-65836723D02*
X145788095Y-65931961D01*
X145788095Y-65931961D02*
X145692857Y-66027200D01*
X145692857Y-66027200D02*
X145550000Y-66074819D01*
X145550000Y-66074819D02*
X145311905Y-66074819D01*
X146788095Y-65074819D02*
X146311905Y-65074819D01*
X146311905Y-65074819D02*
X146264286Y-65551009D01*
X146264286Y-65551009D02*
X146311905Y-65503390D01*
X146311905Y-65503390D02*
X146407143Y-65455771D01*
X146407143Y-65455771D02*
X146645238Y-65455771D01*
X146645238Y-65455771D02*
X146740476Y-65503390D01*
X146740476Y-65503390D02*
X146788095Y-65551009D01*
X146788095Y-65551009D02*
X146835714Y-65646247D01*
X146835714Y-65646247D02*
X146835714Y-65884342D01*
X146835714Y-65884342D02*
X146788095Y-65979580D01*
X146788095Y-65979580D02*
X146740476Y-66027200D01*
X146740476Y-66027200D02*
X146645238Y-66074819D01*
X146645238Y-66074819D02*
X146407143Y-66074819D01*
X146407143Y-66074819D02*
X146311905Y-66027200D01*
X146311905Y-66027200D02*
X146264286Y-65979580D01*
X112919819Y-64873094D02*
X111919819Y-64873094D01*
X111919819Y-64873094D02*
X111919819Y-64634999D01*
X111919819Y-64634999D02*
X111967438Y-64492142D01*
X111967438Y-64492142D02*
X112062676Y-64396904D01*
X112062676Y-64396904D02*
X112157914Y-64349285D01*
X112157914Y-64349285D02*
X112348390Y-64301666D01*
X112348390Y-64301666D02*
X112491247Y-64301666D01*
X112491247Y-64301666D02*
X112681723Y-64349285D01*
X112681723Y-64349285D02*
X112776961Y-64396904D01*
X112776961Y-64396904D02*
X112872200Y-64492142D01*
X112872200Y-64492142D02*
X112919819Y-64634999D01*
X112919819Y-64634999D02*
X112919819Y-64873094D01*
X112253152Y-63444523D02*
X112919819Y-63444523D01*
X111872200Y-63682618D02*
X112586485Y-63920713D01*
X112586485Y-63920713D02*
X112586485Y-63301666D01*
X113654819Y-70516904D02*
X112654819Y-70516904D01*
X113654819Y-69945476D02*
X113083390Y-70374047D01*
X112654819Y-69945476D02*
X113226247Y-70516904D01*
X100219819Y-65508094D02*
X99219819Y-65508094D01*
X99219819Y-65508094D02*
X99219819Y-65269999D01*
X99219819Y-65269999D02*
X99267438Y-65127142D01*
X99267438Y-65127142D02*
X99362676Y-65031904D01*
X99362676Y-65031904D02*
X99457914Y-64984285D01*
X99457914Y-64984285D02*
X99648390Y-64936666D01*
X99648390Y-64936666D02*
X99791247Y-64936666D01*
X99791247Y-64936666D02*
X99981723Y-64984285D01*
X99981723Y-64984285D02*
X100076961Y-65031904D01*
X100076961Y-65031904D02*
X100172200Y-65127142D01*
X100172200Y-65127142D02*
X100219819Y-65269999D01*
X100219819Y-65269999D02*
X100219819Y-65508094D01*
X99219819Y-64603332D02*
X99219819Y-63984285D01*
X99219819Y-63984285D02*
X99600771Y-64317618D01*
X99600771Y-64317618D02*
X99600771Y-64174761D01*
X99600771Y-64174761D02*
X99648390Y-64079523D01*
X99648390Y-64079523D02*
X99696009Y-64031904D01*
X99696009Y-64031904D02*
X99791247Y-63984285D01*
X99791247Y-63984285D02*
X100029342Y-63984285D01*
X100029342Y-63984285D02*
X100124580Y-64031904D01*
X100124580Y-64031904D02*
X100172200Y-64079523D01*
X100172200Y-64079523D02*
X100219819Y-64174761D01*
X100219819Y-64174761D02*
X100219819Y-64460475D01*
X100219819Y-64460475D02*
X100172200Y-64555713D01*
X100172200Y-64555713D02*
X100124580Y-64603332D01*
X101784819Y-70921904D02*
X100784819Y-70921904D01*
X101784819Y-70350476D02*
X101213390Y-70779047D01*
X100784819Y-70350476D02*
X101356247Y-70921904D01*
X112284819Y-45188094D02*
X111284819Y-45188094D01*
X111284819Y-45188094D02*
X111284819Y-44949999D01*
X111284819Y-44949999D02*
X111332438Y-44807142D01*
X111332438Y-44807142D02*
X111427676Y-44711904D01*
X111427676Y-44711904D02*
X111522914Y-44664285D01*
X111522914Y-44664285D02*
X111713390Y-44616666D01*
X111713390Y-44616666D02*
X111856247Y-44616666D01*
X111856247Y-44616666D02*
X112046723Y-44664285D01*
X112046723Y-44664285D02*
X112141961Y-44711904D01*
X112141961Y-44711904D02*
X112237200Y-44807142D01*
X112237200Y-44807142D02*
X112284819Y-44949999D01*
X112284819Y-44949999D02*
X112284819Y-45188094D01*
X111380057Y-44235713D02*
X111332438Y-44188094D01*
X111332438Y-44188094D02*
X111284819Y-44092856D01*
X111284819Y-44092856D02*
X111284819Y-43854761D01*
X111284819Y-43854761D02*
X111332438Y-43759523D01*
X111332438Y-43759523D02*
X111380057Y-43711904D01*
X111380057Y-43711904D02*
X111475295Y-43664285D01*
X111475295Y-43664285D02*
X111570533Y-43664285D01*
X111570533Y-43664285D02*
X111713390Y-43711904D01*
X111713390Y-43711904D02*
X112284819Y-44283332D01*
X112284819Y-44283332D02*
X112284819Y-43664285D01*
X113849819Y-50601904D02*
X112849819Y-50601904D01*
X113849819Y-50030476D02*
X113278390Y-50459047D01*
X112849819Y-50030476D02*
X113421247Y-50601904D01*
X100219819Y-45188094D02*
X99219819Y-45188094D01*
X99219819Y-45188094D02*
X99219819Y-44949999D01*
X99219819Y-44949999D02*
X99267438Y-44807142D01*
X99267438Y-44807142D02*
X99362676Y-44711904D01*
X99362676Y-44711904D02*
X99457914Y-44664285D01*
X99457914Y-44664285D02*
X99648390Y-44616666D01*
X99648390Y-44616666D02*
X99791247Y-44616666D01*
X99791247Y-44616666D02*
X99981723Y-44664285D01*
X99981723Y-44664285D02*
X100076961Y-44711904D01*
X100076961Y-44711904D02*
X100172200Y-44807142D01*
X100172200Y-44807142D02*
X100219819Y-44949999D01*
X100219819Y-44949999D02*
X100219819Y-45188094D01*
X100219819Y-43664285D02*
X100219819Y-44235713D01*
X100219819Y-43949999D02*
X99219819Y-43949999D01*
X99219819Y-43949999D02*
X99362676Y-44045237D01*
X99362676Y-44045237D02*
X99457914Y-44140475D01*
X99457914Y-44140475D02*
X99505533Y-44235713D01*
X100589819Y-49791904D02*
X99589819Y-49791904D01*
X100589819Y-49220476D02*
X100018390Y-49649047D01*
X99589819Y-49220476D02*
X100161247Y-49791904D01*
X130740682Y-65594580D02*
X130693063Y-65642200D01*
X130693063Y-65642200D02*
X130550206Y-65689819D01*
X130550206Y-65689819D02*
X130454968Y-65689819D01*
X130454968Y-65689819D02*
X130312111Y-65642200D01*
X130312111Y-65642200D02*
X130216873Y-65546961D01*
X130216873Y-65546961D02*
X130169254Y-65451723D01*
X130169254Y-65451723D02*
X130121635Y-65261247D01*
X130121635Y-65261247D02*
X130121635Y-65118390D01*
X130121635Y-65118390D02*
X130169254Y-64927914D01*
X130169254Y-64927914D02*
X130216873Y-64832676D01*
X130216873Y-64832676D02*
X130312111Y-64737438D01*
X130312111Y-64737438D02*
X130454968Y-64689819D01*
X130454968Y-64689819D02*
X130550206Y-64689819D01*
X130550206Y-64689819D02*
X130693063Y-64737438D01*
X130693063Y-64737438D02*
X130740682Y-64785057D01*
X131693063Y-65689819D02*
X131121635Y-65689819D01*
X131407349Y-65689819D02*
X131407349Y-64689819D01*
X131407349Y-64689819D02*
X131312111Y-64832676D01*
X131312111Y-64832676D02*
X131216873Y-64927914D01*
X131216873Y-64927914D02*
X131121635Y-64975533D01*
%TO.C,R2*%
D11*
X141435000Y-59055000D02*
X140585000Y-59055000D01*
X123995000Y-59055000D02*
X124845000Y-59055000D01*
X124845000Y-56435000D02*
X140585000Y-56435000D01*
X140585000Y-61675000D01*
X124845000Y-61675000D01*
X124845000Y-56435000D01*
%TO.C,R1*%
X128905000Y-51900000D02*
X128905000Y-51050000D01*
X128905000Y-34460000D02*
X128905000Y-35310000D01*
X126285000Y-35310000D02*
X131525000Y-35310000D01*
X131525000Y-51050000D01*
X126285000Y-51050000D01*
X126285000Y-35310000D01*
%TO.C,J2*%
X81642500Y-72390000D02*
X81642500Y-57150000D01*
X90362500Y-72390000D02*
X90362500Y-57150000D01*
X91462500Y-72390000D02*
X91462500Y-57150000D01*
X92082500Y-72390000D02*
X81642500Y-72390000D01*
X92082500Y-70070000D02*
X92082500Y-72390000D01*
X81642500Y-57150000D02*
X92082500Y-57150000D01*
X92082500Y-57150000D02*
X92082500Y-69470000D01*
X92692500Y-70210000D02*
X92082500Y-69770000D01*
X92692500Y-69330000D01*
X92692500Y-70210000D01*
G36*
X92692500Y-70210000D02*
G01*
X92082500Y-69770000D01*
X92692500Y-69330000D01*
X92692500Y-70210000D01*
G37*
%TO.C,J1*%
X81520000Y-52625000D02*
X81520000Y-37385000D01*
X90240000Y-52625000D02*
X90240000Y-37385000D01*
X91340000Y-52625000D02*
X91340000Y-37385000D01*
X91960000Y-52625000D02*
X81520000Y-52625000D01*
X91960000Y-50305000D02*
X91960000Y-52625000D01*
X81520000Y-37385000D02*
X91960000Y-37385000D01*
X91960000Y-37385000D02*
X91960000Y-49705000D01*
X92570000Y-50445000D02*
X91960000Y-50005000D01*
X92570000Y-49565000D01*
X92570000Y-50445000D01*
G36*
X92570000Y-50445000D02*
G01*
X91960000Y-50005000D01*
X92570000Y-49565000D01*
X92570000Y-50445000D01*
G37*
%TO.C,D5*%
X144490000Y-67344000D02*
X144490000Y-67500000D01*
X144490000Y-69660000D02*
X144490000Y-69816000D01*
X144490000Y-67344484D02*
G75*
G02*
X147721437Y-67500000I1560000J-1235516D01*
G01*
X145009039Y-67500000D02*
G75*
G02*
X147090961Y-67500000I1040961J-1080000D01*
G01*
X147090961Y-69660000D02*
G75*
G02*
X145009039Y-69660000I-1040961J1080000D01*
G01*
X147721437Y-69660000D02*
G75*
G02*
X144490000Y-69815516I-1671437J1080000D01*
G01*
%TO.C,D4*%
X114935000Y-67875000D02*
X114935000Y-66855000D01*
X113465000Y-66075000D02*
X116405000Y-66075000D01*
X113465000Y-65955000D02*
X116405000Y-65955000D01*
X113465000Y-65835000D02*
X116405000Y-65835000D01*
X114935000Y-60395000D02*
X114935000Y-61415000D01*
X113465000Y-61415000D02*
X116405000Y-61415000D01*
X116405000Y-66855000D01*
X113465000Y-66855000D01*
X113465000Y-61415000D01*
%TO.C,D3*%
X102235000Y-68510000D02*
X102235000Y-67490000D01*
X100765000Y-66710000D02*
X103705000Y-66710000D01*
X100765000Y-66590000D02*
X103705000Y-66590000D01*
X100765000Y-66470000D02*
X103705000Y-66470000D01*
X102235000Y-61030000D02*
X102235000Y-62050000D01*
X100765000Y-62050000D02*
X103705000Y-62050000D01*
X103705000Y-67490000D01*
X100765000Y-67490000D01*
X100765000Y-62050000D01*
%TO.C,D2*%
X114300000Y-48190000D02*
X114300000Y-47170000D01*
X112830000Y-46390000D02*
X115770000Y-46390000D01*
X112830000Y-46270000D02*
X115770000Y-46270000D01*
X112830000Y-46150000D02*
X115770000Y-46150000D01*
X114300000Y-40710000D02*
X114300000Y-41730000D01*
X112830000Y-41730000D02*
X115770000Y-41730000D01*
X115770000Y-47170000D01*
X112830000Y-47170000D01*
X112830000Y-41730000D01*
%TO.C,D1*%
X102235000Y-48190000D02*
X102235000Y-47170000D01*
X100765000Y-46390000D02*
X103705000Y-46390000D01*
X100765000Y-46270000D02*
X103705000Y-46270000D01*
X100765000Y-46150000D02*
X103705000Y-46150000D01*
X102235000Y-40710000D02*
X102235000Y-41730000D01*
X100765000Y-41730000D02*
X103705000Y-41730000D01*
X103705000Y-47170000D01*
X100765000Y-47170000D01*
X100765000Y-41730000D01*
%TO.C,C1*%
X126497651Y-68170000D02*
X127297651Y-68170000D01*
X126897651Y-67770000D02*
X126897651Y-68570000D01*
X130907349Y-66405000D02*
X130907349Y-74565000D01*
X130947349Y-66405000D02*
X130947349Y-74565000D01*
X130987349Y-66406000D02*
X130987349Y-74564000D01*
X131027349Y-66407000D02*
X131027349Y-74563000D01*
X131067349Y-66408000D02*
X131067349Y-74562000D01*
X131107349Y-66410000D02*
X131107349Y-74560000D01*
X131147349Y-66412000D02*
X131147349Y-74558000D01*
X131187349Y-66415000D02*
X131187349Y-74555000D01*
X131227349Y-66417000D02*
X131227349Y-74553000D01*
X131267349Y-66421000D02*
X131267349Y-74549000D01*
X131307349Y-66424000D02*
X131307349Y-74546000D01*
X131347349Y-66429000D02*
X131347349Y-74541000D01*
X131387349Y-66433000D02*
X131387349Y-74537000D01*
X131427349Y-66438000D02*
X131427349Y-74532000D01*
X131467349Y-66443000D02*
X131467349Y-74527000D01*
X131507349Y-66449000D02*
X131507349Y-74521000D01*
X131547349Y-66455000D02*
X131547349Y-74515000D01*
X131587349Y-66462000D02*
X131587349Y-74508000D01*
X131627349Y-66468000D02*
X131627349Y-74502000D01*
X131667349Y-66476000D02*
X131667349Y-74494000D01*
X131707349Y-66483000D02*
X131707349Y-74487000D01*
X131747349Y-66492000D02*
X131747349Y-74478000D01*
X131787349Y-66500000D02*
X131787349Y-69445000D01*
X131787349Y-71525000D02*
X131787349Y-74470000D01*
X131827349Y-66509000D02*
X131827349Y-69445000D01*
X131827349Y-71525000D02*
X131827349Y-74461000D01*
X131867349Y-66518000D02*
X131867349Y-69445000D01*
X131867349Y-71525000D02*
X131867349Y-74452000D01*
X131907349Y-66528000D02*
X131907349Y-69445000D01*
X131907349Y-71525000D02*
X131907349Y-74442000D01*
X131947349Y-66538000D02*
X131947349Y-69445000D01*
X131947349Y-71525000D02*
X131947349Y-74432000D01*
X131987349Y-66549000D02*
X131987349Y-69445000D01*
X131987349Y-71525000D02*
X131987349Y-74421000D01*
X132027349Y-66560000D02*
X132027349Y-69445000D01*
X132027349Y-71525000D02*
X132027349Y-74410000D01*
X132067349Y-66572000D02*
X132067349Y-69445000D01*
X132067349Y-71525000D02*
X132067349Y-74398000D01*
X132107349Y-66584000D02*
X132107349Y-69445000D01*
X132107349Y-71525000D02*
X132107349Y-74386000D01*
X132147349Y-66596000D02*
X132147349Y-69445000D01*
X132147349Y-71525000D02*
X132147349Y-74374000D01*
X132187349Y-66609000D02*
X132187349Y-69445000D01*
X132187349Y-71525000D02*
X132187349Y-74361000D01*
X132227349Y-66622000D02*
X132227349Y-69445000D01*
X132227349Y-71525000D02*
X132227349Y-74348000D01*
X132267349Y-66636000D02*
X132267349Y-69445000D01*
X132267349Y-71525000D02*
X132267349Y-74334000D01*
X132307349Y-66650000D02*
X132307349Y-69445000D01*
X132307349Y-71525000D02*
X132307349Y-74320000D01*
X132347349Y-66665000D02*
X132347349Y-69445000D01*
X132347349Y-71525000D02*
X132347349Y-74305000D01*
X132387349Y-66680000D02*
X132387349Y-69445000D01*
X132387349Y-71525000D02*
X132387349Y-74290000D01*
X132427349Y-66696000D02*
X132427349Y-69445000D01*
X132427349Y-71525000D02*
X132427349Y-74274000D01*
X132467349Y-66712000D02*
X132467349Y-69445000D01*
X132467349Y-71525000D02*
X132467349Y-74258000D01*
X132507349Y-66728000D02*
X132507349Y-69445000D01*
X132507349Y-71525000D02*
X132507349Y-74242000D01*
X132547349Y-66745000D02*
X132547349Y-69445000D01*
X132547349Y-71525000D02*
X132547349Y-74225000D01*
X132587349Y-66763000D02*
X132587349Y-69445000D01*
X132587349Y-71525000D02*
X132587349Y-74207000D01*
X132627349Y-66781000D02*
X132627349Y-69445000D01*
X132627349Y-71525000D02*
X132627349Y-74189000D01*
X132667349Y-66800000D02*
X132667349Y-69445000D01*
X132667349Y-71525000D02*
X132667349Y-74170000D01*
X132707349Y-66819000D02*
X132707349Y-69445000D01*
X132707349Y-71525000D02*
X132707349Y-74151000D01*
X132747349Y-66839000D02*
X132747349Y-69445000D01*
X132747349Y-71525000D02*
X132747349Y-74131000D01*
X132787349Y-66859000D02*
X132787349Y-69445000D01*
X132787349Y-71525000D02*
X132787349Y-74111000D01*
X132827349Y-66880000D02*
X132827349Y-69445000D01*
X132827349Y-71525000D02*
X132827349Y-74090000D01*
X132867349Y-66901000D02*
X132867349Y-69445000D01*
X132867349Y-71525000D02*
X132867349Y-74069000D01*
X132907349Y-66923000D02*
X132907349Y-69445000D01*
X132907349Y-71525000D02*
X132907349Y-74047000D01*
X132947349Y-66946000D02*
X132947349Y-69445000D01*
X132947349Y-71525000D02*
X132947349Y-74024000D01*
X132987349Y-66969000D02*
X132987349Y-69445000D01*
X132987349Y-71525000D02*
X132987349Y-74001000D01*
X133027349Y-66992000D02*
X133027349Y-69445000D01*
X133027349Y-71525000D02*
X133027349Y-73978000D01*
X133067349Y-67017000D02*
X133067349Y-69445000D01*
X133067349Y-71525000D02*
X133067349Y-73953000D01*
X133107349Y-67042000D02*
X133107349Y-69445000D01*
X133107349Y-71525000D02*
X133107349Y-73928000D01*
X133147349Y-67067000D02*
X133147349Y-69445000D01*
X133147349Y-71525000D02*
X133147349Y-73903000D01*
X133187349Y-67093000D02*
X133187349Y-69445000D01*
X133187349Y-71525000D02*
X133187349Y-73877000D01*
X133227349Y-67120000D02*
X133227349Y-69445000D01*
X133227349Y-71525000D02*
X133227349Y-73850000D01*
X133267349Y-67148000D02*
X133267349Y-69445000D01*
X133267349Y-71525000D02*
X133267349Y-73822000D01*
X133307349Y-67176000D02*
X133307349Y-69445000D01*
X133307349Y-71525000D02*
X133307349Y-73794000D01*
X133347349Y-67205000D02*
X133347349Y-69445000D01*
X133347349Y-71525000D02*
X133347349Y-73765000D01*
X133387349Y-67235000D02*
X133387349Y-69445000D01*
X133387349Y-71525000D02*
X133387349Y-73735000D01*
X133427349Y-67266000D02*
X133427349Y-69445000D01*
X133427349Y-71525000D02*
X133427349Y-73704000D01*
X133467349Y-67297000D02*
X133467349Y-69445000D01*
X133467349Y-71525000D02*
X133467349Y-73673000D01*
X133507349Y-67329000D02*
X133507349Y-69445000D01*
X133507349Y-71525000D02*
X133507349Y-73641000D01*
X133547349Y-67362000D02*
X133547349Y-69445000D01*
X133547349Y-71525000D02*
X133547349Y-73608000D01*
X133587349Y-67396000D02*
X133587349Y-69445000D01*
X133587349Y-71525000D02*
X133587349Y-73574000D01*
X133627349Y-67430000D02*
X133627349Y-69445000D01*
X133627349Y-71525000D02*
X133627349Y-73540000D01*
X133667349Y-67466000D02*
X133667349Y-69445000D01*
X133667349Y-71525000D02*
X133667349Y-73504000D01*
X133707349Y-67503000D02*
X133707349Y-69445000D01*
X133707349Y-71525000D02*
X133707349Y-73467000D01*
X133747349Y-67540000D02*
X133747349Y-69445000D01*
X133747349Y-71525000D02*
X133747349Y-73430000D01*
X133787349Y-67579000D02*
X133787349Y-69445000D01*
X133787349Y-71525000D02*
X133787349Y-73391000D01*
X133827349Y-67618000D02*
X133827349Y-69445000D01*
X133827349Y-71525000D02*
X133827349Y-73352000D01*
X133867349Y-67659000D02*
X133867349Y-73311000D01*
X133907349Y-67701000D02*
X133907349Y-73269000D01*
X133947349Y-67744000D02*
X133947349Y-73226000D01*
X133987349Y-67789000D02*
X133987349Y-73181000D01*
X134027349Y-67834000D02*
X134027349Y-73136000D01*
X134067349Y-67881000D02*
X134067349Y-73089000D01*
X134107349Y-67930000D02*
X134107349Y-73040000D01*
X134147349Y-67980000D02*
X134147349Y-72990000D01*
X134187349Y-68032000D02*
X134187349Y-72938000D01*
X134227349Y-68085000D02*
X134227349Y-72885000D01*
X134267349Y-68141000D02*
X134267349Y-72829000D01*
X134307349Y-68198000D02*
X134307349Y-72772000D01*
X134347349Y-68258000D02*
X134347349Y-72712000D01*
X134387349Y-68320000D02*
X134387349Y-72650000D01*
X134427349Y-68384000D02*
X134427349Y-72586000D01*
X134467349Y-68451000D02*
X134467349Y-72519000D01*
X134507349Y-68521000D02*
X134507349Y-72449000D01*
X134547349Y-68595000D02*
X134547349Y-72375000D01*
X134587349Y-68672000D02*
X134587349Y-72298000D01*
X134627349Y-68754000D02*
X134627349Y-72216000D01*
X134667349Y-68841000D02*
X134667349Y-72129000D01*
X134707349Y-68933000D02*
X134707349Y-72037000D01*
X134747349Y-69032000D02*
X134747349Y-71938000D01*
X134787349Y-69139000D02*
X134787349Y-71831000D01*
X134827349Y-69257000D02*
X134827349Y-71713000D01*
X134867349Y-69388000D02*
X134867349Y-71582000D01*
X134907349Y-69538000D02*
X134907349Y-71432000D01*
X134947349Y-69717000D02*
X134947349Y-71253000D01*
X134987349Y-69952000D02*
X134987349Y-71018000D01*
X135027349Y-70485000D02*
G75*
G02*
X126787349Y-70485000I-4120000J0D01*
G01*
X126787349Y-70485000D02*
G75*
G02*
X135027349Y-70485000I4120000J0D01*
G01*
%TD*%
M02*
