%TF.GenerationSoftware,KiCad,Pcbnew,10.0.1-rc1*%
%TF.CreationDate,2026-06-20T21:57:40+05:30*%
%TF.ProjectId,AC TO DC,41432054-4f20-4444-932e-6b696361645f,rev?*%
%TF.SameCoordinates,Original*%
%TF.FileFunction,Copper,L2,Bot*%
%TF.FilePolarity,Positive*%
%FSLAX46Y46*%
G04 Gerber Fmt 4.6, Leading zero omitted, Abs format (unit mm)*
G04 Created by KiCad (PCBNEW 10.0.1-rc1) date 2026-06-20 21:57:40*
%MOMM*%
%LPD*%
G01*
G04 APERTURE LIST*
G04 Aperture macros list*
%AMRoundRect*
0 Rectangle with rounded corners*
0 $1 Rounding radius*
0 $2 $3 $4 $5 $6 $7 $8 $9 X,Y pos of 4 corners*
0 Add a 4 corners polygon primitive as box body*
4,1,4,$2,$3,$4,$5,$6,$7,$8,$9,$2,$3,0*
0 Add four circle primitives for the rounded corners*
1,1,$1+$1,$2,$3*
1,1,$1+$1,$4,$5*
1,1,$1+$1,$6,$7*
1,1,$1+$1,$8,$9*
0 Add four rect primitives between the rounded corners*
20,1,$1+$1,$2,$3,$4,$5,0*
20,1,$1+$1,$4,$5,$6,$7,0*
20,1,$1+$1,$6,$7,$8,$9,0*
20,1,$1+$1,$8,$9,$2,$3,0*%
G04 Aperture macros list end*
%TA.AperFunction,ComponentPad*%
%ADD10C,2.400000*%
%TD*%
%TA.AperFunction,ComponentPad*%
%ADD11RoundRect,0.250001X0.949999X-0.949999X0.949999X0.949999X-0.949999X0.949999X-0.949999X-0.949999X0*%
%TD*%
%TA.AperFunction,ComponentPad*%
%ADD12R,1.800000X1.800000*%
%TD*%
%TA.AperFunction,ComponentPad*%
%ADD13C,1.800000*%
%TD*%
%TA.AperFunction,ComponentPad*%
%ADD14RoundRect,0.249999X0.850001X-0.850001X0.850001X0.850001X-0.850001X0.850001X-0.850001X-0.850001X0*%
%TD*%
%TA.AperFunction,ComponentPad*%
%ADD15C,2.200000*%
%TD*%
%TA.AperFunction,ComponentPad*%
%ADD16RoundRect,0.250000X-0.550000X-0.550000X0.550000X-0.550000X0.550000X0.550000X-0.550000X0.550000X0*%
%TD*%
%TA.AperFunction,ComponentPad*%
%ADD17C,1.600000*%
%TD*%
%TA.AperFunction,Conductor*%
%ADD18C,0.500000*%
%TD*%
%TA.AperFunction,Conductor*%
%ADD19C,1.000000*%
%TD*%
G04 APERTURE END LIST*
D10*
%TO.P,R2,1*%
%TO.N,Net-(D1-K)*%
X142875000Y-59055000D03*
%TO.P,R2,2*%
%TO.N,Net-(D5-A)*%
X122555000Y-59055000D03*
%TD*%
%TO.P,R1,1*%
%TO.N,Net-(D1-K)*%
X128905000Y-53340000D03*
%TO.P,R1,2*%
%TO.N,GND*%
X128905000Y-33020000D03*
%TD*%
D11*
%TO.P,J2,1,Pin_1_1*%
%TO.N,GND*%
X86562500Y-69770000D03*
D10*
%TO.P,J2,2,Pin_2_2*%
%TO.N,Net-(D1-K)*%
X86562500Y-64770000D03*
%TO.P,J2,3*%
%TO.N,N/C*%
X86562500Y-59770000D03*
%TD*%
D11*
%TO.P,J1,1,Pin_1_1*%
%TO.N,Net-(D2-A)*%
X86440000Y-50005000D03*
D10*
%TO.P,J1,2,Pin_2_2*%
%TO.N,Net-(D1-A)*%
X86440000Y-45005000D03*
%TO.P,J1,3*%
%TO.N,N/C*%
X86440000Y-40005000D03*
%TD*%
D12*
%TO.P,D5,1,K_1*%
%TO.N,GND*%
X144780000Y-68580000D03*
D13*
%TO.P,D5,2,A_2*%
%TO.N,Net-(D5-A)*%
X147320000Y-68580000D03*
%TD*%
D14*
%TO.P,D4,1,K_1*%
%TO.N,Net-(D2-A)*%
X114935000Y-69215000D03*
D15*
%TO.P,D4,2,A_2*%
%TO.N,GND*%
X114935000Y-59055000D03*
%TD*%
D14*
%TO.P,D3,1,K_1*%
%TO.N,Net-(D1-A)*%
X102235000Y-69850000D03*
D15*
%TO.P,D3,2,A_2*%
%TO.N,GND*%
X102235000Y-59690000D03*
%TD*%
D14*
%TO.P,D2,1,K_1*%
%TO.N,Net-(D1-K)*%
X114300000Y-49530000D03*
D15*
%TO.P,D2,2,A_2*%
%TO.N,Net-(D2-A)*%
X114300000Y-39370000D03*
%TD*%
D14*
%TO.P,D1,1,K_1*%
%TO.N,Net-(D1-K)*%
X102235000Y-49530000D03*
D15*
%TO.P,D1,2,A_2*%
%TO.N,Net-(D1-A)*%
X102235000Y-39370000D03*
%TD*%
D16*
%TO.P,C1,1*%
%TO.N,Net-(D1-K)*%
X129007349Y-70485000D03*
D17*
%TO.P,C1,2*%
%TO.N,GND*%
X132807349Y-70485000D03*
%TD*%
%TO.N,Net-(D1-K)*%
D18*
X104035000Y-68953122D02*
X104035000Y-71100430D01*
X100685000Y-51080000D02*
X100685000Y-65603122D01*
X100685000Y-65603122D02*
X104035000Y-68953122D01*
X102235000Y-49530000D02*
X100685000Y-51080000D01*
%TO.N,GND*%
X102235000Y-59690000D02*
X109688743Y-67143743D01*
%TO.N,Net-(D2-A)*%
X87695622Y-73800000D02*
X110350000Y-73800000D01*
X84790000Y-44321547D02*
X84790000Y-70894378D01*
X91291547Y-37820000D02*
X84790000Y-44321547D01*
X112750000Y-37820000D02*
X91291547Y-37820000D01*
X84790000Y-70894378D02*
X87695622Y-73800000D01*
X114300000Y-39370000D02*
X112750000Y-37820000D01*
X110350000Y-73800000D02*
X114935000Y-69215000D01*
%TO.N,Net-(D1-K)*%
X120905000Y-58371547D02*
X120905000Y-62382651D01*
X120905000Y-62382651D02*
X129007349Y-70485000D01*
X125936547Y-53340000D02*
X120905000Y-58371547D01*
X128905000Y-53340000D02*
X125936547Y-53340000D01*
X130555000Y-51690000D02*
X128905000Y-53340000D01*
X129588453Y-31370000D02*
X130555000Y-32336547D01*
X128221547Y-31370000D02*
X129588453Y-31370000D01*
X130555000Y-32336547D02*
X130555000Y-51690000D01*
X114300000Y-45291547D02*
X128221547Y-31370000D01*
X114300000Y-49530000D02*
X114300000Y-45291547D01*
%TO.N,GND*%
X114935000Y-61897486D02*
X109688743Y-67143743D01*
X114935000Y-59055000D02*
X114935000Y-61897486D01*
X128905000Y-45085000D02*
X128905000Y-33020000D01*
X114935000Y-59055000D02*
X128905000Y-45085000D01*
X127615000Y-71735000D02*
X114935000Y-59055000D01*
X131557349Y-71735000D02*
X127615000Y-71735000D01*
X132807349Y-70485000D02*
X131557349Y-71735000D01*
%TO.N,Net-(D1-K)*%
X142875000Y-59055000D02*
X137160000Y-53340000D01*
X137160000Y-53340000D02*
X128905000Y-53340000D01*
%TO.N,Net-(D5-A)*%
X137795000Y-59055000D02*
X147320000Y-68580000D01*
X122555000Y-59055000D02*
X137795000Y-59055000D01*
%TO.N,GND*%
X142875000Y-70485000D02*
X144780000Y-68580000D01*
X132807349Y-70485000D02*
X142875000Y-70485000D01*
D19*
X103982486Y-72850000D02*
X109688743Y-67143743D01*
X89642500Y-72850000D02*
X103982486Y-72850000D01*
X86562500Y-69770000D02*
X89642500Y-72850000D01*
%TO.N,Net-(D1-K)*%
X102235000Y-49530000D02*
X114300000Y-49530000D01*
X103485430Y-71650000D02*
X104035000Y-71100430D01*
X93442500Y-71650000D02*
X103485430Y-71650000D01*
X86562500Y-64770000D02*
X93442500Y-71650000D01*
%TO.N,Net-(D2-A)*%
X86642944Y-43105000D02*
X92177944Y-37570000D01*
X84540000Y-44217994D02*
X85652994Y-43105000D01*
X85652994Y-43105000D02*
X86642944Y-43105000D01*
X84540000Y-48105000D02*
X84540000Y-44217994D01*
X112500000Y-37570000D02*
X114300000Y-39370000D01*
X86440000Y-50005000D02*
X84540000Y-48105000D01*
X92177944Y-37570000D02*
X112500000Y-37570000D01*
%TO.N,Net-(D1-A)*%
X99695000Y-69850000D02*
X102235000Y-69850000D01*
X96520000Y-66675000D02*
X99695000Y-69850000D01*
X96520000Y-55085000D02*
X96520000Y-66675000D01*
X86440000Y-45005000D02*
X96520000Y-55085000D01*
X92075000Y-39370000D02*
X102235000Y-39370000D01*
X86440000Y-45005000D02*
X92075000Y-39370000D01*
%TD*%
M02*
