%TF.GenerationSoftware,KiCad,Pcbnew,10.0.1-rc1*%
%TF.CreationDate,2026-06-20T21:57:40+05:30*%
%TF.ProjectId,AC TO DC,41432054-4f20-4444-932e-6b696361645f,rev?*%
%TF.SameCoordinates,Original*%
%TF.FileFunction,Copper,L1,Top*%
%TF.FilePolarity,Positive*%
%FSLAX46Y46*%
G04 Gerber Fmt 4.6, Leading zero omitted, Abs format (unit mm)*
G04 Created by KiCad (PCBNEW 10.0.1-rc1) date 2026-06-20 21:57:40*
%MOMM*%
%LPD*%
G01*
G04 APERTURE LIST*
G04 Aperture macros list*
%AMRoundRect*
0 Rectangle with rounded corners*
0 $1 Rounding radius*
0 $2 $3 $4 $5 $6 $7 $8 $9 X,Y pos of 4 corners*
0 Add a 4 corners polygon primitive as box body*
4,1,4,$2,$3,$4,$5,$6,$7,$8,$9,$2,$3,0*
0 Add four circle primitives for the rounded corners*
1,1,$1+$1,$2,$3*
1,1,$1+$1,$4,$5*
1,1,$1+$1,$6,$7*
1,1,$1+$1,$8,$9*
0 Add four rect primitives between the rounded corners*
20,1,$1+$1,$2,$3,$4,$5,0*
20,1,$1+$1,$4,$5,$6,$7,0*
20,1,$1+$1,$6,$7,$8,$9,0*
20,1,$1+$1,$8,$9,$2,$3,0*%
G04 Aperture macros list end*
%ADD10C,0.300000*%
%TA.AperFunction,NonConductor*%
%ADD11C,0.300000*%
%TD*%
%TA.AperFunction,ComponentPad*%
%ADD12C,2.400000*%
%TD*%
%TA.AperFunction,ComponentPad*%
%ADD13RoundRect,0.250001X0.949999X-0.949999X0.949999X0.949999X-0.949999X0.949999X-0.949999X-0.949999X0*%
%TD*%
%TA.AperFunction,ComponentPad*%
%ADD14R,1.800000X1.800000*%
%TD*%
%TA.AperFunction,ComponentPad*%
%ADD15C,1.800000*%
%TD*%
%TA.AperFunction,ComponentPad*%
%ADD16RoundRect,0.249999X0.850001X-0.850001X0.850001X0.850001X-0.850001X0.850001X-0.850001X-0.850001X0*%
%TD*%
%TA.AperFunction,ComponentPad*%
%ADD17C,2.200000*%
%TD*%
%TA.AperFunction,ComponentPad*%
%ADD18RoundRect,0.250000X-0.550000X-0.550000X0.550000X-0.550000X0.550000X0.550000X-0.550000X0.550000X0*%
%TD*%
%TA.AperFunction,ComponentPad*%
%ADD19C,1.600000*%
%TD*%
G04 APERTURE END LIST*
D10*
D11*
X103988082Y-31757257D02*
X104702368Y-31757257D01*
X103845225Y-32185828D02*
X104345225Y-30685828D01*
X104345225Y-30685828D02*
X104845225Y-32185828D01*
X105988082Y-32114400D02*
X105845224Y-32185828D01*
X105845224Y-32185828D02*
X105559510Y-32185828D01*
X105559510Y-32185828D02*
X105416653Y-32114400D01*
X105416653Y-32114400D02*
X105345224Y-32042971D01*
X105345224Y-32042971D02*
X105273796Y-31900114D01*
X105273796Y-31900114D02*
X105273796Y-31471542D01*
X105273796Y-31471542D02*
X105345224Y-31328685D01*
X105345224Y-31328685D02*
X105416653Y-31257257D01*
X105416653Y-31257257D02*
X105559510Y-31185828D01*
X105559510Y-31185828D02*
X105845224Y-31185828D01*
X105845224Y-31185828D02*
X105988082Y-31257257D01*
X107559510Y-30685828D02*
X108416653Y-30685828D01*
X107988081Y-32185828D02*
X107988081Y-30685828D01*
X109130938Y-32185828D02*
X108988081Y-32114400D01*
X108988081Y-32114400D02*
X108916652Y-32042971D01*
X108916652Y-32042971D02*
X108845224Y-31900114D01*
X108845224Y-31900114D02*
X108845224Y-31471542D01*
X108845224Y-31471542D02*
X108916652Y-31328685D01*
X108916652Y-31328685D02*
X108988081Y-31257257D01*
X108988081Y-31257257D02*
X109130938Y-31185828D01*
X109130938Y-31185828D02*
X109345224Y-31185828D01*
X109345224Y-31185828D02*
X109488081Y-31257257D01*
X109488081Y-31257257D02*
X109559510Y-31328685D01*
X109559510Y-31328685D02*
X109630938Y-31471542D01*
X109630938Y-31471542D02*
X109630938Y-31900114D01*
X109630938Y-31900114D02*
X109559510Y-32042971D01*
X109559510Y-32042971D02*
X109488081Y-32114400D01*
X109488081Y-32114400D02*
X109345224Y-32185828D01*
X109345224Y-32185828D02*
X109130938Y-32185828D01*
X111416652Y-32185828D02*
X111416652Y-30685828D01*
X111416652Y-30685828D02*
X111773795Y-30685828D01*
X111773795Y-30685828D02*
X111988081Y-30757257D01*
X111988081Y-30757257D02*
X112130938Y-30900114D01*
X112130938Y-30900114D02*
X112202367Y-31042971D01*
X112202367Y-31042971D02*
X112273795Y-31328685D01*
X112273795Y-31328685D02*
X112273795Y-31542971D01*
X112273795Y-31542971D02*
X112202367Y-31828685D01*
X112202367Y-31828685D02*
X112130938Y-31971542D01*
X112130938Y-31971542D02*
X111988081Y-32114400D01*
X111988081Y-32114400D02*
X111773795Y-32185828D01*
X111773795Y-32185828D02*
X111416652Y-32185828D01*
X113559510Y-32114400D02*
X113416652Y-32185828D01*
X113416652Y-32185828D02*
X113130938Y-32185828D01*
X113130938Y-32185828D02*
X112988081Y-32114400D01*
X112988081Y-32114400D02*
X112916652Y-32042971D01*
X112916652Y-32042971D02*
X112845224Y-31900114D01*
X112845224Y-31900114D02*
X112845224Y-31471542D01*
X112845224Y-31471542D02*
X112916652Y-31328685D01*
X112916652Y-31328685D02*
X112988081Y-31257257D01*
X112988081Y-31257257D02*
X113130938Y-31185828D01*
X113130938Y-31185828D02*
X113416652Y-31185828D01*
X113416652Y-31185828D02*
X113559510Y-31257257D01*
X116202366Y-32042971D02*
X116130938Y-32114400D01*
X116130938Y-32114400D02*
X115916652Y-32185828D01*
X115916652Y-32185828D02*
X115773795Y-32185828D01*
X115773795Y-32185828D02*
X115559509Y-32114400D01*
X115559509Y-32114400D02*
X115416652Y-31971542D01*
X115416652Y-31971542D02*
X115345223Y-31828685D01*
X115345223Y-31828685D02*
X115273795Y-31542971D01*
X115273795Y-31542971D02*
X115273795Y-31328685D01*
X115273795Y-31328685D02*
X115345223Y-31042971D01*
X115345223Y-31042971D02*
X115416652Y-30900114D01*
X115416652Y-30900114D02*
X115559509Y-30757257D01*
X115559509Y-30757257D02*
X115773795Y-30685828D01*
X115773795Y-30685828D02*
X115916652Y-30685828D01*
X115916652Y-30685828D02*
X116130938Y-30757257D01*
X116130938Y-30757257D02*
X116202366Y-30828685D01*
X117059509Y-32185828D02*
X116916652Y-32114400D01*
X116916652Y-32114400D02*
X116845223Y-32042971D01*
X116845223Y-32042971D02*
X116773795Y-31900114D01*
X116773795Y-31900114D02*
X116773795Y-31471542D01*
X116773795Y-31471542D02*
X116845223Y-31328685D01*
X116845223Y-31328685D02*
X116916652Y-31257257D01*
X116916652Y-31257257D02*
X117059509Y-31185828D01*
X117059509Y-31185828D02*
X117273795Y-31185828D01*
X117273795Y-31185828D02*
X117416652Y-31257257D01*
X117416652Y-31257257D02*
X117488081Y-31328685D01*
X117488081Y-31328685D02*
X117559509Y-31471542D01*
X117559509Y-31471542D02*
X117559509Y-31900114D01*
X117559509Y-31900114D02*
X117488081Y-32042971D01*
X117488081Y-32042971D02*
X117416652Y-32114400D01*
X117416652Y-32114400D02*
X117273795Y-32185828D01*
X117273795Y-32185828D02*
X117059509Y-32185828D01*
X118202366Y-31185828D02*
X118202366Y-32185828D01*
X118202366Y-31328685D02*
X118273795Y-31257257D01*
X118273795Y-31257257D02*
X118416652Y-31185828D01*
X118416652Y-31185828D02*
X118630938Y-31185828D01*
X118630938Y-31185828D02*
X118773795Y-31257257D01*
X118773795Y-31257257D02*
X118845224Y-31400114D01*
X118845224Y-31400114D02*
X118845224Y-32185828D01*
X119416652Y-31185828D02*
X119773795Y-32185828D01*
X119773795Y-32185828D02*
X120130938Y-31185828D01*
X121273795Y-32114400D02*
X121130938Y-32185828D01*
X121130938Y-32185828D02*
X120845224Y-32185828D01*
X120845224Y-32185828D02*
X120702366Y-32114400D01*
X120702366Y-32114400D02*
X120630938Y-31971542D01*
X120630938Y-31971542D02*
X120630938Y-31400114D01*
X120630938Y-31400114D02*
X120702366Y-31257257D01*
X120702366Y-31257257D02*
X120845224Y-31185828D01*
X120845224Y-31185828D02*
X121130938Y-31185828D01*
X121130938Y-31185828D02*
X121273795Y-31257257D01*
X121273795Y-31257257D02*
X121345224Y-31400114D01*
X121345224Y-31400114D02*
X121345224Y-31542971D01*
X121345224Y-31542971D02*
X120630938Y-31685828D01*
X121988080Y-32185828D02*
X121988080Y-31185828D01*
X121988080Y-31471542D02*
X122059509Y-31328685D01*
X122059509Y-31328685D02*
X122130938Y-31257257D01*
X122130938Y-31257257D02*
X122273795Y-31185828D01*
X122273795Y-31185828D02*
X122416652Y-31185828D01*
X122702366Y-31185828D02*
X123273794Y-31185828D01*
X122916651Y-30685828D02*
X122916651Y-31971542D01*
X122916651Y-31971542D02*
X122988080Y-32114400D01*
X122988080Y-32114400D02*
X123130937Y-32185828D01*
X123130937Y-32185828D02*
X123273794Y-32185828D01*
X124345223Y-32114400D02*
X124202366Y-32185828D01*
X124202366Y-32185828D02*
X123916652Y-32185828D01*
X123916652Y-32185828D02*
X123773794Y-32114400D01*
X123773794Y-32114400D02*
X123702366Y-31971542D01*
X123702366Y-31971542D02*
X123702366Y-31400114D01*
X123702366Y-31400114D02*
X123773794Y-31257257D01*
X123773794Y-31257257D02*
X123916652Y-31185828D01*
X123916652Y-31185828D02*
X124202366Y-31185828D01*
X124202366Y-31185828D02*
X124345223Y-31257257D01*
X124345223Y-31257257D02*
X124416652Y-31400114D01*
X124416652Y-31400114D02*
X124416652Y-31542971D01*
X124416652Y-31542971D02*
X123702366Y-31685828D01*
X125059508Y-32185828D02*
X125059508Y-31185828D01*
X125059508Y-31471542D02*
X125130937Y-31328685D01*
X125130937Y-31328685D02*
X125202366Y-31257257D01*
X125202366Y-31257257D02*
X125345223Y-31185828D01*
X125345223Y-31185828D02*
X125488080Y-31185828D01*
D12*
%TO.P,R2,1*%
%TO.N,Net-(D1-K)*%
X142875000Y-59055000D03*
%TO.P,R2,2*%
%TO.N,Net-(D5-A)*%
X122555000Y-59055000D03*
%TD*%
%TO.P,R1,1*%
%TO.N,Net-(D1-K)*%
X128905000Y-53340000D03*
%TO.P,R1,2*%
%TO.N,GND*%
X128905000Y-33020000D03*
%TD*%
D13*
%TO.P,J2,1,Pin_1_1*%
%TO.N,GND*%
X86562500Y-69770000D03*
D12*
%TO.P,J2,2,Pin_2_2*%
%TO.N,Net-(D1-K)*%
X86562500Y-64770000D03*
%TO.P,J2,3*%
%TO.N,N/C*%
X86562500Y-59770000D03*
%TD*%
D13*
%TO.P,J1,1,Pin_1_1*%
%TO.N,Net-(D2-A)*%
X86440000Y-50005000D03*
D12*
%TO.P,J1,2,Pin_2_2*%
%TO.N,Net-(D1-A)*%
X86440000Y-45005000D03*
%TO.P,J1,3*%
%TO.N,N/C*%
X86440000Y-40005000D03*
%TD*%
D14*
%TO.P,D5,1,K_1*%
%TO.N,GND*%
X144780000Y-68580000D03*
D15*
%TO.P,D5,2,A_2*%
%TO.N,Net-(D5-A)*%
X147320000Y-68580000D03*
%TD*%
D16*
%TO.P,D4,1,K_1*%
%TO.N,Net-(D2-A)*%
X114935000Y-69215000D03*
D17*
%TO.P,D4,2,A_2*%
%TO.N,GND*%
X114935000Y-59055000D03*
%TD*%
D16*
%TO.P,D3,1,K_1*%
%TO.N,Net-(D1-A)*%
X102235000Y-69850000D03*
D17*
%TO.P,D3,2,A_2*%
%TO.N,GND*%
X102235000Y-59690000D03*
%TD*%
D16*
%TO.P,D2,1,K_1*%
%TO.N,Net-(D1-K)*%
X114300000Y-49530000D03*
D17*
%TO.P,D2,2,A_2*%
%TO.N,Net-(D2-A)*%
X114300000Y-39370000D03*
%TD*%
D16*
%TO.P,D1,1,K_1*%
%TO.N,Net-(D1-K)*%
X102235000Y-49530000D03*
D17*
%TO.P,D1,2,A_2*%
%TO.N,Net-(D1-A)*%
X102235000Y-39370000D03*
%TD*%
D18*
%TO.P,C1,1*%
%TO.N,Net-(D1-K)*%
X129007349Y-70485000D03*
D19*
%TO.P,C1,2*%
%TO.N,GND*%
X132807349Y-70485000D03*
%TD*%
M02*
